# Aspose.3D Wavefront OBJ Exporter
# Copyright 2004-2023 Aspose Pty Ltd.
# File created: 12/10/2023 02:54:47

mtllib material.lib

#
# object SN_ceiling_wood_beam
#

v -2.644927 8.68573400000000008 236.15849299999999288
v -2.64492899999999984 8.68573400000000008 141.71360699999999608
v -2.64492899999999984 -8.82002599999999856 141.71360699999999608
v -2.644927 -8.82002599999999856 236.15849299999999288
v 2.76218600000000032 -8.82002599999999856 141.71360699999999608
v 2.76218600000000032 8.68573400000000008 141.71360699999999608
v 2.76218800000000016 8.68573400000000008 236.15849299999999288
v 2.76218800000000016 -8.82002599999999856 236.15849299999999288
v 2.76217700000000032 -8.82002599999999856 -236.06587299999998208
v -2.64493899999999992 -8.82002599999999856 -236.06587299999998208
v -2.64493899999999992 8.68573400000000008 -236.06587299999998208
v 2.76217700000000032 8.68573400000000008 -236.06587299999998208
v 2.76218600000000032 8.68573400000000008 141.71360699999999608
v -2.64492899999999984 8.68573400000000008 141.71360699999999608
v -2.644927 8.68573400000000008 236.15849299999999288
v 2.76218800000000016 8.68573400000000008 236.15849299999999288
v 2.76218800000000016 8.68573400000000008 236.15849299999999288
v -2.644927 8.68573400000000008 236.15849299999999288
v -2.644927 -8.82002599999999856 236.15849299999999288
v 2.76218800000000016 -8.82002599999999856 236.15849299999999288
v 2.76217900000000016 -8.82002599999999856 -141.62098699999998528
v -2.64493699999999968 -8.82002599999999856 -141.62098699999998528
v -2.64493899999999992 -8.82002599999999856 -236.06587299999998208
v 2.76217700000000032 -8.82002599999999856 -236.06587299999998208
v 2.76218800000000016 -8.82002599999999856 236.15849299999999288
v -2.644927 -8.82002599999999856 236.15849299999999288
v -2.64492899999999984 -8.82002599999999856 141.71360699999999608
v 2.76218600000000032 -8.82002599999999856 141.71360699999999608
v 2.76218600000000032 -8.82002599999999856 141.71360699999999608
v -2.64492899999999984 -8.82002599999999856 141.71360699999999608
v -2.64493199999999984 -8.82002599999999856 47.26874899999999968
v 2.762184 -8.82002599999999856 47.26874899999999968
v 2.762184 -8.82002599999999856 47.26874899999999968
v -2.64493199999999984 -8.82002599999999856 47.26874899999999968
v -2.64493399999999968 -8.82002599999999856 -47.17612499999999898
v 2.762181 -8.82002599999999856 -47.17612499999999898
v 2.762181 -8.82002599999999856 -47.17612499999999898
v -2.64493399999999968 -8.82002599999999856 -47.17612499999999898
v -2.64493699999999968 -8.82002599999999856 -141.62098699999998528
v 2.76217900000000016 -8.82002599999999856 -141.62098699999998528
v 2.76217700000000032 8.68573400000000008 -236.06587299999998208
v -2.64493899999999992 8.68573400000000008 -236.06587299999998208
v -2.64493699999999968 8.68573400000000008 -141.62098699999998528
v 2.76217900000000016 8.68573400000000008 -141.62098699999998528
v 2.76217900000000016 8.68573400000000008 -141.62098699999998528
v -2.64493699999999968 8.68573400000000008 -141.62098699999998528
v -2.64493399999999968 8.68573400000000008 -47.17612900000000308
v 2.76218200000000016 8.68573400000000008 -47.17612900000000308
v 2.76218200000000016 8.68573400000000008 -47.17612900000000308
v -2.64493399999999968 8.68573400000000008 -47.17612900000000308
v -2.64493199999999984 8.68573400000000008 47.26874499999999556
v 2.762184 8.68573400000000008 47.26874499999999556
v 2.762184 8.68573400000000008 47.26874499999999556
v -2.64493199999999984 8.68573400000000008 47.26874499999999556
v -2.64492899999999984 8.68573400000000008 141.71360699999999608
v 2.76218600000000032 8.68573400000000008 141.71360699999999608
v 2.76217700000000032 -8.82002599999999856 -236.06587299999998208
v 2.76217700000000032 8.68573400000000008 -236.06587299999998208
v 2.76217900000000016 8.68573400000000008 -141.62098699999998528
v 2.76217900000000016 -8.82002599999999856 -141.62098699999998528
v 2.76217900000000016 -8.82002599999999856 -141.62098699999998528
v 2.76217900000000016 8.68573400000000008 -141.62098699999998528
v 2.76218200000000016 8.68573400000000008 -47.17612900000000308
v 2.762181 -8.82002599999999856 -47.17612499999999898
v 2.762181 -8.82002599999999856 -47.17612499999999898
v 2.76218200000000016 8.68573400000000008 -47.17612900000000308
v 2.762184 8.68573400000000008 47.26874499999999556
v 2.762184 -8.82002599999999856 47.26874899999999968
v 2.762184 -8.82002599999999856 47.26874899999999968
v 2.762184 8.68573400000000008 47.26874499999999556
v 2.76218600000000032 8.68573400000000008 141.71360699999999608
v 2.76218600000000032 -8.82002599999999856 141.71360699999999608
v -2.64493699999999968 8.68573400000000008 -141.62098699999998528
v -2.64493899999999992 8.68573400000000008 -236.06587299999998208
v -2.64493899999999992 -8.82002599999999856 -236.06587299999998208
v -2.64493699999999968 -8.82002599999999856 -141.62098699999998528
v -2.64493399999999968 8.68573400000000008 -47.17612900000000308
v -2.64493699999999968 8.68573400000000008 -141.62098699999998528
v -2.64493699999999968 -8.82002599999999856 -141.62098699999998528
v -2.64493399999999968 -8.82002599999999856 -47.17612499999999898
v -2.64493199999999984 8.68573400000000008 47.26874499999999556
v -2.64493399999999968 8.68573400000000008 -47.17612900000000308
v -2.64493399999999968 -8.82002599999999856 -47.17612499999999898
v -2.64493199999999984 -8.82002599999999856 47.26874899999999968
v -2.64492899999999984 8.68573400000000008 141.71360699999999608
v -2.64493199999999984 8.68573400000000008 47.26874499999999556
v -2.64493199999999984 -8.82002599999999856 47.26874899999999968
v -2.64492899999999984 -8.82002599999999856 141.71360699999999608
# 88 vertices

vn -1 0 0
vn -1 0 0
vn -1 0 0
vn -1 0 0
vn 1 0 0
vn 1 0 0
vn 1 0 0
vn 1 0 0
vn 0 0 -1
vn 0 0 -1
vn 0 0 -1
vn 0 0 -1
vn 0 1 0
vn 0 1 0
vn 0 1 0
vn 0 1 0
vn 0 0 1
vn 0 0 1
vn 0 0 1
vn 0 0 1
vn 0 -1 0
vn 0 -1 0
vn 0 -1 0
vn 0 -1 0
vn 0 -1 0
vn 0 -1 0
vn 0 -1 0
vn 0 -1 0
vn 0 -1 0
vn 0 -1 0
vn 0 -1 0
vn 0 -1 0
vn 0 -1 0
vn 0 -1 0
vn 0 -1 0
vn 0 -1 0
vn 0 -1 0
vn 0 -1 0
vn 0 -1 0
vn 0 -1 0
vn 0 1 0
vn 0 1 0
vn 0 1 0
vn 0 1 0
vn 0 1 0
vn 0 1 0
vn 0 1 0
vn 0 1 0
vn 0 1 0
vn 0 1 0
vn 0 1 0
vn 0 1 0
vn 0 1 0
vn 0 1 0
vn 0 1 0
vn 0 1 0
vn 1 0 0
vn 1 0 0
vn 1 0 0
vn 1 0 0
vn 1 0 0
vn 1 0 0
vn 1 0 0
vn 1 0 0
vn 1 0 0
vn 1 0 0
vn 1 0 0
vn 1 0 0
vn 1 0 0
vn 1 0 0
vn 1 0 0
vn 1 0 0
vn -1 0 0
vn -1 0 0
vn -1 0 0
vn -1 0 0
vn -1 0 0
vn -1 0 0
vn -1 0 0
vn -1 0 0
vn -1 0 0
vn -1 0 0
vn -1 0 0
vn -1 0 0
vn -1 0 0
vn -1 0 0
vn -1 0 0
vn -1 0 0
# 88 vertex normals

vt 0.001953 0.68810800000000008 0
vt 0.53831700000000008 0.68810800000000008 0
vt 0.53831700000000008 0.787525 0
vt 0.001953 0.787525 0
vt 0.50036899999999992 0.001953 0
vt 0.59978699999999992 0.001953 0
vt 0.59978699999999992 0.53831700000000008 0
vt 0.50036899999999992 0.53831700000000008 0
vt 0.032661 0.64429 0
vt 0.001953 0.64429 0
vt 0.001953 0.544872 0
vt 0.032661 0.544872 0
vt 0.53831700000000008 0.831343 0
vt 0.53831700000000008 0.862051 0
vt 0.001953 0.862051 0
vt 0.001953 0.831343 0
vt 0.105438 0.868606 0
vt 0.13614499999999998 0.868606 0
vt 0.13614499999999998 0.968024 0
vt 0.105438 0.968024 0
vt 0.493814 0.53831700000000008 0
vt 0.463106 0.53831700000000008 0
vt 0.463106 0.001953 0
vt 0.493814 0.001953 0
vt 0.60634200000000008 0.001953 0
vt 0.63705 0.001953 0
vt 0.63705 0.53831700000000008 0
vt 0.60634200000000008 0.53831700000000008 0
vt 0.749578 0.001953 0
vt 0.780285 0.001953 0
vt 0.780285 0.53831700000000008 0
vt 0.749578 0.53831700000000008 0
vt 0.001953 0.68155200000000008 0
vt 0.001953 0.650845 0
vt 0.53831700000000008 0.650845 0
vt 0.53831700000000008 0.68155200000000008 0
vt 0.001953 0.824788 0
vt 0.001953 0.79408 0
vt 0.53831700000000008 0.79408 0
vt 0.53831700000000008 0.824788 0
vt 0.138633 0.53831700000000008 0
vt 0.107926 0.53831700000000008 0
vt 0.107926 0.001953 0
vt 0.138633 0.001953 0
vt 0.923521 0.53831700000000008 0
vt 0.892813 0.53831700000000008 0
vt 0.892813 0.001953 0
vt 0.923521 0.001953 0
vt 0.967339 0.001953 0
vt 0.998047 0.001953 0
vt 0.998047 0.538316 0
vt 0.967339 0.538316 0
vt 0.930076 0.001953 0
vt 0.960784 0.001953 0
vt 0.960784 0.538316 0
vt 0.930076 0.538316 0
vt 0.59150100000000008 0.544872 0
vt 0.59150100000000008 0.644289 0
vt 0.055137 0.64429 0
vt 0.055137 0.544872 0
vt 0.786841 0.001953 0
vt 0.886258 0.001953 0
vt 0.886258 0.53831700000000008 0
vt 0.786841 0.53831700000000008 0
vt 0.10137 0.53831700000000008 0
vt 0.001953 0.53831700000000008 0
vt 0.001953 0.001953 0
vt 0.10137 0.001953 0
vt 0.932098 0.868606 0
vt 0.932098 0.968024 0
vt 0.395734 0.968024 0
vt 0.395734 0.868606 0
vt 0.357134 0.53831700000000008 0
vt 0.357134 0.001953 0
vt 0.456551 0.001953 0
vt 0.456551 0.53831700000000008 0
vt 0.350578 0.001953 0
vt 0.35057899999999996 0.53831700000000008 0
vt 0.25116100000000004 0.53831700000000008 0
vt 0.25116100000000004 0.001953 0
vt 0.14518900000000002 0.53831700000000008 0
vt 0.14518900000000002 0.001953 0
vt 0.244606 0.001953 0
vt 0.244606 0.53831700000000008 0
vt 0.643605 0.53831700000000008 0
vt 0.643605 0.001953 0
vt 0.743022 0.001953 0
vt 0.743022 0.53831700000000008 0
# 88 texture coords

g SN_ceiling_wood_beam
usemtl T_ceiling_wood_beam_2_1001
s 1
f 1/1/1 2/2/2 3/3/3
f 3/3/3 4/4/4 1/1/1
f 5/5/5 6/6/6 7/7/7
f 7/7/7 8/8/8 5/5/5
f 9/9/9 10/10/10 11/11/11
f 11/11/11 12/12/12 9/9/9
f 13/13/13 14/14/14 15/15/15
f 15/15/15 16/16/16 13/13/13
f 17/17/17 18/18/18 19/19/19
f 19/19/19 20/20/20 17/17/17
f 21/21/21 22/22/22 23/23/23
f 23/23/23 24/24/24 21/21/21
f 25/25/25 26/26/26 27/27/27
f 27/27/27 28/28/28 25/25/25
f 29/29/29 30/30/30 31/31/31
f 31/31/31 32/32/32 29/29/29
f 33/33/33 34/34/34 35/35/35
f 35/35/35 36/36/36 33/33/33
f 37/37/37 38/38/38 39/39/39
f 39/39/39 40/40/40 37/37/37
f 41/41/41 42/42/42 43/43/43
f 43/43/43 44/44/44 41/41/41
f 45/45/45 46/46/46 47/47/47
f 47/47/47 48/48/48 45/45/45
f 49/49/49 50/50/50 51/51/51
f 51/51/51 52/52/52 49/49/49
f 53/53/53 54/54/54 55/55/55
f 55/55/55 56/56/56 53/53/53
f 57/57/57 58/58/58 59/59/59
f 59/59/59 60/60/60 57/57/57
f 61/61/61 62/62/62 63/63/63
f 63/63/63 64/64/64 61/61/61
f 65/65/65 66/66/66 67/67/67
f 67/67/67 68/68/68 65/65/65
f 69/69/69 70/70/70 71/71/71
f 71/71/71 72/72/72 69/69/69
f 73/73/73 74/74/74 75/75/75
f 75/75/75 76/76/76 73/73/73
f 77/77/77 78/78/78 79/79/79
f 79/79/79 80/80/80 77/77/77
f 81/81/81 82/82/82 83/83/83
f 83/83/83 84/84/84 81/81/81
f 85/85/85 86/86/86 87/87/87
f 87/87/87 88/88/88 85/85/85
#44 polygons

